{"title":"Unknown 2011 DVDRiP XViD AC3 - IMAGiNE","uid":6420919,"size":1495150206,"categoryP":"video","categoryS":"movies","magnet":"?xt=urn:btih:e95df0305df94cbca7d7a3320ec39da09405e918&amp;dn=Unknown+2011+DVDRiP+XViD+AC3+-+IMAGiNE&amp;tr=udp%3A%2F%2Ftracker.openbittorrent.com%3A80&amp;tr=udp%3A%2F%2Fopen.demonii.com%3A1337&amp;tr=udp%3A%2F%2Ftracker.coppersurfer.tk%3A6969&amp;tr=udp%3A%2F%2Fexodus.desync.com%3A6969","seeders":0,"leechers":1,"uploader":"HeroMaster","files":-1,"time":1306314031,"description":"Unknown 2011 DVDRiP XViD AC3 - IMAGiNE\n\nRipper ...........: IMAGiNE                                      \nIMDB Rating.......: 6.8/10                             \nVideo Codec.......: XVID                                         \nRelease Date......: 24/05/11\nAudio Codec.......: AC3                                          \nTheatre Date......: 18/02/11\nAudio Bitrate.....: 256                                          \nRuntime.......: 1h 53mn\nSubtitles.........: NIL                                          Language..........: ENGLISH\nResolution......: 720 x 304                                      \nIMDb URL..........: http://www.imdb.com/title/tt1401152/\n\n\nDETAILS:\n\nVideo\nID                               : 0\nFormat                           : MPEG-4 Visual\nFormat profile                   : Advanced Simple@L5\nFormat settings, BVOP            : 2\nFormat settings, QPel            : No\nFormat settings, GMC             : No warppoints\nFormat settings, Matrix          : Default (MPEG)\nMuxing mode                      : Packed bitstream\nCodec ID                         : XVID\nCodec ID/Hint                    : XviD\nDuration                         : 1h 53mn\nBit rate                         : 1 466 Kbps\nWidth                            : 720 pixels\nHeight                           : 304 pixels\nDisplay aspect ratio             : 2.35:1\nFrame rate                       : 29.970 fps\nColor space                      : YUV\nChroma subsampling               : 4:2:0\nBit depth                        : 8 bits\nScan type                        : Progressive\nCompression mode                 : Lossy\nBits/(Pixel*Frame)               : 0.223\nStream size                      : 1.16 GiB (85%)\nWriting library                  : XviD 61\n\nAudio\nID                               : 1\nFormat                           : AC-3\nFormat/Info                      : Audio Coding 3\nMode extension                   : CM (complete main)\nCodec ID                         : 2000\nDuration                         : 1h 53mn\nBit rate mode                    : Constant\nBit rate                         : 256 Kbps\nChannel(s)                       : 2 channels\nChannel positions                : Front: L R\nSampling rate                    : 48.0 KHz\nBit depth                        : 16 bits\nCompression mode                 : Lossy\nStream size                      : 207 MiB (15%)\nAlignment                        : Aligned on interleaves\nInterleave, duration             : 33 ms (1.00 video frame)\nInterleave, preload duration     : 512 ms\n\n\n\nSOURCES:\n\nVIDEO: ............. KINOPARK\nAUDIO: ............. KINOPARK\n\n\n\nNOTES:\n\nIMAGiNE bringing you another release..........\nUnknown............\nOk where to begin......\nsource was nice, also had english studio audio \nsince it was ntsc and came with the nice audio \nwe went with the dvdrip tag \nAnyhow, so we made a script to crop, resize and so on......\nThe audio was then remuxed to our encode \n\n\nScreens:\n\n &lt;a href=&quot;\nhttp://www.postimg.com/image/38000/photo-37196.jpg&quot; rel=&quot;nofollow&quot; target=&quot;_NEW&quot;&gt;\nhttp://www.postimg.com/image/38000/photo-37196.jpg&lt;/a&gt;\n &lt;a href=&quot;\nhttp://www.postimg.com/image/38000/photo-37197.jpg&quot; rel=&quot;nofollow&quot; target=&quot;_NEW&quot;&gt;\nhttp://www.postimg.com/image/38000/photo-37197.jpg&lt;/a&gt;\n &lt;a href=&quot;\nhttp://www.postimg.com/image/38000/photo-37198.jpg&quot; rel=&quot;nofollow&quot; target=&quot;_NEW&quot;&gt;\nhttp://www.postimg.com/image/38000/photo-37198.jpg&lt;/a&gt;\n\n\nENJOY!","torrent":{"xt":"urn:btih:e95df0305df94cbca7d7a3320ec39da09405e918","amp;dn":"Unknown+2011+DVDRiP+XViD+AC3+-+IMAGiNE","amp;tr":["udp%3A%2F%2Ftracker.openbittorrent.com%3A80","udp%3A%2F%2Fopen.demonii.com%3A1337","udp%3A%2F%2Ftracker.coppersurfer.tk%3A6969","udp%3A%2F%2Fexodus.desync.com%3A6969"],"infoHash":"e95df0305df94cbca7d7a3320ec39da09405e918","infoHashBuffer":{"type":"Buffer","data":[233,93,240,48,93,249,76,188,167,215,163,50,14,195,157,160,148,5,233,24]},"announce":[],"urlList":[]}}